<!DOCTYPE svg PUBLIC "-//W3C//DTD SVG 1.1//EN" "http://www.w3.org/Graphics/SVG/1.1/DTD/svg11.dtd">
<!-- Uploaded to: SVG Repo, www.svgrepo.com, Transformed by: SVG Repo Mixer Tools -->
<svg height="64px" width="64px" version="1.1" id="Layer_1" xmlns="http://www.w3.org/2000/svg" xmlns:xlink="http://www.w3.org/1999/xlink" viewBox="0 0 508 508" xml:space="preserve" fill="#000000">
<g id="SVGRepo_bgCarrier" stroke-width="0"/>
<g id="SVGRepo_tracerCarrier" stroke-linecap="round" stroke-linejoin="round"/>
<g id="SVGRepo_iconCarrier"> <path style="fill:#F4EFEF;" d="M253.6,134.6c7.2,0,13.6,6.4,18.4,16l6,13.6h195.2c17.2,0,28.4-18.8,28.4-34V82.6 c0-16.4-12-26-28.4-26H38c-15.6,0-32,8.8-32,26v47.6c0,16.4,15.6,34,32,34h191.2l6-13.2C240.4,141,246.8,134.6,253.6,134.6z"/> <path style="fill:#CDEEF9;" d="M334,91.8h-8h-32H118c-7.6,0-16,2-16,9.6v8.4c0,7.6,8,18,16,18h216.4c7.6,0,12-10,12-18v-8.4 C346,93.8,342,91.8,334,91.8z"/> <path style="fill:#E8E3E3;" d="M63.2,89c-2-0.4-3.6-0.8-5.6-0.8c-9.6,0-17.6,8-17.6,17.6s8,17.6,17.6,17.6s17.6-8,17.6-17.6 c0-2-0.4-3.6-0.8-5.2C71.6,91,63.2,89,63.2,89z"/> <g> <path style="fill:#61C2AB;" d="M462,115.8c3.2,0,6.4-1.6,8.4-3.6c1.2-1.2,2.4-3.2,2-6c-1.6-10.4-10-10.4-10-10.4 c-5.6,0-10,4.4-10,10C452,111.4,456.4,115.8,462,115.8z"/> <path style="fill:#61C2AB;" d="M422,115.8c3.2,0,6-1.2,8-3.6c1.6-2,2.4-4,2-6.4c-1.2-8.4-10.4-10.4-10.4-10.4 c-5.2,0-9.6,4.4-9.6,10C412,111.4,416.4,115.8,422,115.8z"/> <path style="fill:#61C2AB;" d="M382,115.8c3.2,0,6.4-1.6,8.4-4c1.2-1.2,2.4-3.2,2-6c-1.6-9.6-10-10.4-10.4-10.4 c-5.6,0-10,4.4-10,10C372,111.4,376.4,115.8,382,115.8z"/> </g> <g> <path style="fill:#F4EFEF;" d="M172,271.4v1.2c0,1.2-0.8,3.2-2,3.2h-52c-9.6,0-20-8.4-20-18.4v-12c0-10,10.4-13.6,20-13.6h16 l0.4-0.8c-0.8-2.8-0.8-6,0-8.8c2-6.8,9.2-11.6,19.6-13.2l56-7.6l1.2-2H38c-15.6,0-32,8.8-32,26V273c0,16.8,15.6,34.4,32,34.4h142 l4-23.6L172,271.4z"/> <path style="fill:#F4EFEF;" d="M353.6,208.2c10.4,1.6,17.6,6,20,12.8c2,6.8-0.8,14.4-8.4,22l-40.4,40.8l4,24h144.8 c17.2,0,28.4-18.8,28.4-34.4v-47.6c0-16-12-26-28.4-26H296.4l1.2,1.6L353.6,208.2z"/> </g> <path style="fill:#CDEEF9;" d="M143.2,243.8L143.2,243.8L143.2,243.8L143.2,243.8C143.2,243.4,143.2,243.4,143.2,243.8L143.2,243.8 l-1.6-1.2l-0.4-0.4c-2.8-2.8-4.8-4.8-6-8c-0.4,0.4-0.8,1.6-1.6,1.6h-16c-7.6,0-16,2-16,9.6v12c0,7.6,8.4,14.4,16,14.4H166h3.6 c0,0,0-0.8,0.4-0.8L143.2,243.8z"/> <path style="fill:#E8E3E3;" d="M74.8,244.2c-1.2-8.4-11.2-11.2-11.2-11.2c-2-0.4-3.6-0.8-5.6-0.8c-9.6,0-17.6,8-17.6,17.6 s8,17.6,17.6,17.6s17.6-8,17.6-17.6c0-1.2-0.4-2-0.4-3.2C74.8,245.4,74.8,245,74.8,244.2z"/> <g> <path style="fill:#61C2AB;" d="M462,259.8c3.2,0,6.4-1.6,8.4-4c1.2-1.2,2.4-3.2,1.6-6c-1.6-9.2-10.4-10.4-10.4-10.4 c-5.2,0-10,4.4-10,10S456.4,259.8,462,259.8z"/> <path style="fill:#61C2AB;" d="M422,259.8c3.2,0,6-1.2,8-3.6c1.6-2,2.4-4,2-6.4c-1.2-9.2-10-10.4-10.4-10.4c-5.2,0-10,4.4-10,10 C412,255,416.4,259.8,422,259.8z"/> <path style="fill:#61C2AB;" d="M382,259.8c3.2,0,6-1.2,8-3.6c1.6-2,2.4-4,2-6.4c-0.8-7.6-8.8-10-10.4-10.4c-5.6,0-10,4.8-10,10 C372,255,376.4,259.8,382,259.8z"/> </g> <path style="fill:#F4EFEF;" d="M473.6,343.8H334.8c0.8,4-0.4,12.4-4,16.4c-5.2,6.4-15.2,7.2-26,1.6l-35.2-18h-30l-35.2,17.6 c-5.2,2.8-10.4,3.6-14.4,3.6v-0.4c-4,0-8.8-0.8-11.6-4c-3.6-4-4.8-12.8-4-16.8h-136c-15.6,0-32,8.4-32,25.6V417 c0,16.8,15.6,34.4,32,34.4h435.2c17.2,0,28.4-18.8,28.4-34.4v-47.6C502,353,490.4,343.8,473.6,343.8z"/> <path style="fill:#CDEEF9;" d="M102,389v8.4c0,7.6,8.4,18.4,16,18.4h216.4c7.6,0,12-10.4,12-18.4V389c0-7.6-4-9.2-12-9.2h-8h-32 h-176C110,379.8,102,381.8,102,389z"/> <path style="fill:#E8E3E3;" d="M63.2,376.6c-1.6-0.4-3.6-0.8-5.2-0.8c-9.6,0-17.6,8-17.6,17.6S48.4,411,58,411s17.6-8,17.6-17.6 c0-1.6,0-3.6-0.8-5.2C71.2,379.8,63.2,376.6,63.2,376.6z"/> <g> <path style="fill:#61C2AB;" d="M462,383.4c-5.2,0-10,4.4-10,10s4.4,10,10,10c2.8,0,6-1.2,8-3.6c1.6-2,2.4-4,2.4-6.4 C471.2,384.2,462.4,383.4,462,383.4z"/> <path style="fill:#61C2AB;" d="M422,383.4c-5.6,0-10,4.4-10,10s4.4,10,10,10c2.8,0,5.6-1.2,7.6-3.2s2.8-4.4,2.8-6.8 C431.6,383.8,422.8,383.4,422,383.4z"/> <path style="fill:#61C2AB;" d="M382,383.4c-5.6,0-10,4.4-10,10s4.4,10,10,10c2.8,0,6-1.2,8-3.6c1.6-2,2.4-4,2.4-6.4 C391.2,383.8,382.4,383.4,382,383.4z"/> </g> <path style="fill:#CC9999;" d="M184,307.4l-0.4,1.2C184,308.6,184,308.2,184,307.4C184,307.8,184,307.4,184,307.4z"/> <path style="fill:#6BA1BC;" d="M362,240.2c6.4-6.4,9.2-12.8,7.6-18c-1.6-5.2-7.6-8.8-16.4-10l-57.2-8l0,0c-0.8,0-1.2-0.4-1.6-1.2 L276,165.8l-7.2-14.8c-4-8-9.2-12.8-14.8-12.8s-10.8,4.4-14.8,12.8l-7.2,14.4L215.6,201c-0.4,0.4-0.8,3.2-1.6,3.2l0,0l-59.2,10 c-8.8,1.2-14.8,4-16.4,9.2c-1.6,5.2-0.4,10.4,7.6,16.8l0,0c0,0,0.4,0.4,0.4,0.8l41.2,40c0.4,0.4,0.8,1.2,0.4,1.6l-2.4,13.6l-2,10.8 c0,0,0,0,0,0.4s0,0.8-0.4,0.8l-4.8,29.2l-0.4,2c0,0.8-0.4,1.2-0.4,2l0,0c0,6.4,0.4,12,3.2,15.2c2,2.4,4.8,3.6,8.8,3.6 c3.6,0,8-1.2,12.4-3.6l28.8-15.2l22.4-12c0.4-0.4,1.2-0.4,2,0l22.8,12l28.4,14.8c9.2,4.8,16.8,4.8,21.2,0c2.8-3.2,3.6-8.4,2.8-14.8 c0-0.8-0.4-1.6-0.4-2.4l-5.2-30l-0.4-3.2l-0.8-5.2l-3.2-19.2c0-0.8,0-1.2,0.4-1.6L362,240.2z"/> <path d="M473.6,169.8H278c-2.4,0-4-1.6-4-4s1.6-4,4-4h195.6c15.2,0,26.4-16.8,26.4-32V82.2c0-14.8-10.4-24-26.4-24H38 c-14.8,0-30,8.4-30,24v47.6c0,16,15.2,32,30,32h192c2.4,0,4,1.6,4,4s-1.6,4-4,4H38c-19.2,0-38-20-38-40V82.2c0-20.8,19.6-32,38-32 h435.2c20.8,0,34.4,12.8,34.4,32v47.6C508,148.6,494,169.8,473.6,169.8z"/> <path d="M334,133.8H118c-10.4,0-18-8-18-20v-12.4c0-10.4,6-15.6,18-15.6h176c2.4,0,4,1.6,4,4s-1.6,4-4,4H118c-8.4,0-10,2.8-10,7.6 v12.4c0,5.6,2.4,12,10,12h216.4c7.2,0,10-6.4,10-12v-12.4c0-5.2-1.6-7.6-10-7.6h-8c-2.4,0-4-1.6-4-4s1.6-4,4-4h8 c12,0,18,5.2,18,15.6v12.4C352,125.8,344.8,133.8,334,133.8z"/> <path d="M57.6,129.4c-13.2,0-23.6-10.8-23.6-23.6s10.8-23.6,23.6-23.6c2.4,0,4.8,0.4,7.2,1.2c2,0.8,3.2,2.8,2.4,5.2 c-0.8,2-2.8,3.2-5.2,2.4c-1.6-0.4-3.2-0.8-4.8-0.8c-8.8,0-15.6,7.2-15.6,15.6s7.2,15.6,15.6,15.6c8.8,0,15.6-7.2,15.6-15.6 c0-1.6-0.4-3.2-0.8-4.8c-0.8-2,0.4-4.4,2.8-4.8c2-0.8,4.4,0.4,4.8,2.8c0.8,2.4,1.2,4.4,1.2,6.8C81.6,119,70.8,129.4,57.6,129.4z"/> <path d="M462,121.8c-8.8,0-16-7.2-16-16s7.2-16,16-16c2.4,0,4,1.6,4,4s-1.6,4-4,4c-4.4,0-8,3.6-8,8s3.6,8,8,8s8-3.6,8-8 c0-2.4,1.6-4,4-4s4,1.6,4,4C478,114.6,470.8,121.8,462,121.8z"/> <path d="M422,121.8c-8.8,0-16-7.2-16-16s7.2-16,16-16c2.4,0,4,1.6,4,4s-1.6,4-4,4c-4.4,0-8,3.6-8,8s3.6,8,8,8s8-3.6,8-8 c0-2.4,1.6-4,4-4s4,1.6,4,4C438,114.6,430.8,121.8,422,121.8z"/> <path d="M382,121.8c-8.8,0-16-7.2-16-16s7.2-16,16-16c2.4,0,4,1.6,4,4s-1.6,4-4,4c-4.4,0-8,3.6-8,8s3.6,8,8,8s8-3.6,8-8 c0-2.4,1.6-4,4-4s4,1.6,4,4C398,114.6,390.8,121.8,382,121.8z"/> <path d="M178,313.8H38c-19.2,0-38-20-38-40.4v-47.6c0-20.8,19.6-32,38-32h176c2.4,0,4,1.6,4,4s-1.6,4-4,4H38c-14.8,0-30,8.4-30,24 v47.6c0,16,15.2,32.4,30,32.4h140c2.4,0,4,1.6,4,4S180.4,313.8,178,313.8z"/> <path d="M473.6,313.8H330c-2.4,0-4-1.6-4-4s1.6-4,4-4h143.6c15.2,0,26.4-17.2,26.4-32.4v-47.6c0-14.4-10.4-24-26.4-24H294 c-2.4,0-4-1.6-4-4s1.6-4,4-4h179.6c20.8,0,34.4,12.8,34.4,32v47.6C508,292.6,494,313.8,473.6,313.8z"/> <path d="M172.8,277.8H118c-10.4,0-18-8.4-18-20v-12.4c0-10.4,6-15.6,18-15.6h16c2.4,0,4,1.6,4,4s-1.6,4-4,4h-16 c-8.4,0-10,2.4-10,7.6v12.4c0,5.6,2.4,12,10,12h55.2c2.4,0,4,1.6,4,4S175.2,277.8,172.8,277.8z"/> <path d="M57.6,273.4c-13.2,0-23.6-10.8-23.6-23.6s10.8-23.6,23.6-23.6c2.4,0,4.8,0.4,7.2,1.2c2,0.8,3.2,2.8,2.4,5.2 c-0.8,2-2.8,3.2-5.2,2.4c-1.6-0.4-3.2-0.8-4.8-0.8c-8.8,0-15.6,7.2-15.6,15.6c0,8.8,7.2,15.6,15.6,15.6c8.8,0,15.6-7.2,15.6-15.6 c0-1.6-0.4-3.2-0.8-4.8c-0.8-2,0.4-4.4,2.8-4.8c2-0.8,4.4,0.4,4.8,2.8c0.8,2.4,1.2,4.4,1.2,6.8C81.6,262.6,70.8,273.4,57.6,273.4z"/> <path d="M462,265.8c-8.8,0-16-7.2-16-16s7.2-16,16-16c2.4,0,4,1.6,4,4s-1.6,4-4,4c-4.4,0-8,3.6-8,8s3.6,8,8,8s8-3.6,8-8 c0-2.4,1.6-4,4-4s4,1.6,4,4C478,258.6,470.8,265.8,462,265.8z"/> <path d="M422,265.8c-8.8,0-16-7.2-16-16s7.2-16,16-16c2.4,0,4,1.6,4,4s-1.6,4-4,4c-4.4,0-8,3.6-8,8s3.6,8,8,8s8-3.6,8-8 c0-2.4,1.6-4,4-4s4,1.6,4,4C438,258.6,430.8,265.8,422,265.8z"/> <path d="M382,265.8c-8.8,0-16-7.2-16-16s7.2-16,16-16c2.4,0,4,1.6,4,4s-1.6,4-4,4c-4.4,0-8,3.6-8,8s3.6,8,8,8s8-3.6,8-8 c0-2.4,1.6-4,4-4s4,1.6,4,4C398,258.6,390.8,265.8,382,265.8z"/> <path d="M473.6,457.8H38c-19.2,0-38-20-38-40.4v-47.6c0-20.8,19.2-31.6,38-31.6h136c2.4,0,4,1.6,4,4s-1.6,4-4,4H38 c-14.8,0-30,8-30,23.6v47.6c0,16,15.2,32.4,30,32.4h435.2c15.2,0,26.4-17.2,26.4-32.4v-47.6c0-14.8-10-23.6-26.4-23.6H334 c-2.4,0-4-1.6-4-4s1.6-4,4-4h139.6c20.8,0,34.4,12.8,34.4,31.6v47.6C508,436.6,494,457.8,473.6,457.8z"/> <path d="M334,421.8H118c-10.4,0-18-8.4-18-20.4V389c0-15.2,13.6-15.2,18-15.2h176c2.4,0,4,1.6,4,4s-1.6,4-4,4H118 c-8.4,0-10,2.4-10,7.2v12.4c0,6,3.2,12.4,10,12.4h216.4c6.8,0,10-6,10-12.4V389c0-5.2-1.6-7.2-10-7.2h-8c-2.4,0-4-1.6-4-4s1.6-4,4-4 h8c4.4,0,18,0,18,15.2v12.4C352,413.4,344.4,421.8,334,421.8z"/> <path d="M57.6,417C44.4,417,34,406.2,34,393.4s10.8-23.6,23.6-23.6c2.4,0,4.8,0.4,7.2,1.2c2,0.8,3.2,2.8,2.4,5.2 c-0.8,2-2.8,3.2-5.2,2.8c-1.6-0.4-3.2-0.8-4.8-0.8c-8.8,0-15.6,7.2-15.6,15.6s7.2,15.6,15.6,15.6c8.8,0,15.6-7.2,15.6-15.6 c0-1.6-0.4-3.2-0.8-4.8c-0.8-2,0.4-4.4,2.8-5.2s4.4,0.4,4.8,2.8c0.8,2.4,1.2,4.4,1.2,6.8C81.6,406.6,70.8,417,57.6,417z"/> <path d="M462,409.4c-8.8,0-16-7.2-16-16s7.2-16,16-16c2.4,0,4,1.6,4,4s-1.6,4-4,4c-4.4,0-8,3.6-8,8s3.6,8,8,8s8-3.6,8-8 c0-2.4,1.6-4,4-4s4,1.6,4,4C478,402.2,470.8,409.4,462,409.4z"/> <path d="M422,409.4c-8.8,0-16-7.2-16-16s7.2-16,16-16c2.4,0,4,1.6,4,4s-1.6,4-4,4c-4.4,0-8,3.6-8,8s3.6,8,8,8s8-3.6,8-8 c0-2.4,1.6-4,4-4s4,1.6,4,4C438,402.2,430.8,409.4,422,409.4z"/> <path d="M382,409.4c-8.8,0-16-7.2-16-16s7.2-16,16-16c2.4,0,4,1.6,4,4s-1.6,4-4,4c-4.4,0-8,3.6-8,8s3.6,8,8,8s8-3.6,8-8 c0-2.4,1.6-4,4-4s4,1.6,4,4C398,402.2,390.8,409.4,382,409.4z"/> <path d="M189.6,366.6c-4,0-7.6-1.2-10.4-3.2c-6.4-4.4-8.8-13.2-6.8-24.8l9.2-54.8l-41.2-40l-0.4-0.4c-6.8-7.6-9.6-15.2-7.2-22 c2.4-7.6,10-12.4,21.2-14l42.8-6.4l0.4,4l-0.4-4l12-2l24.4-50c5.2-10.4,12-16,20-16l0,0c8,0,14.8,5.6,20,16l24.8,50l55.2,8 c11.2,1.6,19.2,6.8,21.6,14c2.4,7.6-0.8,16-8.8,24l-40,39.2l9.6,54.8c2,11.2-0.4,20-6.8,24.8s-15.6,4.4-25.6-1.2l-49.6-26l-49.2,26 C199.6,365.4,194.4,366.6,189.6,366.6z M147.2,239.4l41.6,40.4c0.8,0.8,1.2,2.4,1.2,3.6l-9.6,57.2c-1.2,8,0,14.4,3.6,16.8 c3.6,2.8,10,2,17.2-2l51.2-27.2c1.2-0.8,2.4-0.8,3.6,0l51.2,26.8c7.2,3.6,13.6,4.4,17.2,1.6s5.2-8.8,3.6-16.8L318,283 c-0.4-1.2,0-2.8,1.2-3.6l41.2-40.4c6-5.6,8.4-11.6,6.8-16c-1.6-4.4-6.8-7.6-14.8-8.8l-57.2-8c-1.2,0-2.4-1.2-3.2-2l-25.6-51.6 c-3.6-7.2-8.4-11.6-12.8-11.6l0,0c-4.4,0-9.2,4.4-12.8,11.6l-25.6,52c-0.4,1.2-1.6,2-3.2,2l-14.4,2l0,0l-42.8,6.4 c-8,1.2-13.6,4.4-14.8,8.8C138.8,227.8,141.6,233.4,147.2,239.4L147.2,239.4L147.2,239.4L147.2,239.4z"/> </g>
</svg>